<svg xmlns="http://www.w3.org/2000/svg" xmlns:xlink="http://www.w3.org/1999/xlink" version="1.1" width="612pt" height="792pt" viewBox="0 0 612 792">
<path transform="matrix(1,0,0,-1,217.261,190.35303)" stroke-width=".3985" stroke-linecap="butt" stroke-miterlimit="10" stroke-linejoin="miter" fill="none" stroke="#000000" d="M119.8613 0H74.56169"/>
<path transform="matrix(-1,-0,0,1,291.8227,190.35303)" stroke-width=".3985" stroke-linecap="butt" stroke-miterlimit="10" stroke-linejoin="miter" fill="none" stroke="#000000" d="M0 2.3356 5.50233 0 0-2.3356Z"/>
<path transform="matrix(1,0,0,-1,217.261,190.35303)" d="M-68.35004-65.35222H68.35004V65.35222H-68.35004ZM68.35004 47.35518H-68.35004M68.35004 7.44003H-68.35004" fill="#fffcd5"/>
<path transform="matrix(1,0,0,-1,217.261,190.35303)" stroke-width=".3985" stroke-linecap="butt" stroke-miterlimit="10" stroke-linejoin="miter" fill="none" stroke="#000000" d="M-68.35004-65.35222H68.35004V65.35222H-68.35004ZM68.35004 47.35518H-68.35004M68.35004 7.44003H-68.35004"/>
<text xml:space="preserve" transform="matrix(1 0 -0 1 0 792)" font-size="8.9664" font-family="F50"><tspan y="-655.809" x="204.548 212.87779 218.47284 224.06789">Good</tspan></text>
<text xml:space="preserve" transform="matrix(1 0 -0 1 0 792)" font-size="8.9664" font-family="F34"><tspan y="-637.812" x="158.209 161.27552 165.87528 169.4708 174.58165 178.67929 182.27481 188.92789 193.78768 198.89853 202.99617 209.64028 214.75113 218.32872 221.92424 224.47966 229.59052">-orderCode:String</tspan><tspan y="-626.853" x="158.209 161.27552 166.38637 169.98189 172.53731 176.62599 180.72364 187.3767 189.93212 194.78295">-price:int</tspan><tspan y="-615.89407" x="158.209 161.27552 165.61525 169.96396 174.56372 177.11914 179.67456 184.27433 189.38518 191.9406 194.49602 197.05144 200.37798 205.23777 211.89083 217.25273 222.11252 226.71228">-availability:bool</tspan></text>
<text xml:space="preserve" transform="matrix(1 0 -0 1 0 792.00009)" font-size="8.9664" font-family="F34"><tspan y="-597.897" x="158.209 165.37316 169.97292 174.07056 177.64815 184.8123 188.40782 193.51868 197.61632 201.21184 207.86492 212.7247 217.83556 221.9332 225.51079 229.08838 235.73249 240.85231 244.4299 248.02542 250.58084 255.6917">+getOrderCode():String</tspan><tspan y="-586.938" x="158.209 165.37316 169.00455 173.10219 176.67978 183.84394 187.43946 192.55031 196.64795 200.24347 206.89655 211.75634 216.86719 220.96483 224.54242 229.65328 233.23087 236.82639 239.3818 244.49266 249.09243 252.67002 259.3231 263.92286 268.5226 271.07804">+setOrderCode(String):void</tspan><tspan y="-575.979" x="158.209 165.37316 169.97292 174.07056 177.64815 183.91567 187.51119 190.0666 194.15529 198.25293 201.83052 205.40811 212.06118 214.6166 219.46743">+getPrice():int</tspan><tspan y="-565.02" x="158.209 165.37316 169.00455 173.10219 176.67978 182.9473 186.54282 189.09824 193.18692 197.28456 200.86215 203.41757 208.27738 211.85497 215.43256 222.08562 226.68538 231.28514 233.84056">+setPrice(int):void</tspan><tspan y="-554.06106" x="158.209 165.37316 167.92858 171.55997 177.44193 181.79064 186.3904 188.94582 191.50124 196.101 201.21186 203.76728 207.86492 211.4425 215.0201 221.67316 227.03507 231.89485 236.49462">+isAvailable():bool</tspan><tspan y="-543.103" x="158.209 165.37316 169.00455 173.10219 176.67978 182.56174 186.91045 191.51021 194.06563 196.62105 201.22081 206.33167 208.88709 211.4425 213.99793 217.31549 222.17528 225.76184 231.12375 235.98354 240.5833 243.13872 246.71631 253.36042 257.96916 262.5689 265.12434">+setAvailability(bool):void</tspan></text>
<path transform="matrix(1,0,0,-1,217.261,190.35303)" d="M120.06055-26.99556H220.10115V26.99556H120.06055ZM220.10117 8.99852H120.06055M220.10117-8.99852H120.06055" fill="#fffcd5"/>
<path transform="matrix(1,0,0,-1,217.261,190.35303)" stroke-width=".3985" stroke-linecap="butt" stroke-miterlimit="10" stroke-linejoin="miter" fill="none" stroke="#000000" d="M120.06055-26.99556H220.10115V26.99556H120.06055ZM220.10117 8.99852H120.06055M220.10117-8.99852H120.06055"/>
<text xml:space="preserve" transform="matrix(1 0 -0 1 0 792.00009)" font-size="8.9664" font-family="F50"><tspan y="-617.452" x="350.587 357.52699 362.38679 366.75343 369.6944 373.87275 379.76368 384.91935 390.81028 393.75126 398.61106 406.94084 412.53587 418.1309">PerishableGood</tspan></text>
<text xml:space="preserve" transform="matrix(1 0 -0 1 0 792)" font-size="8.9664" font-family="F34"><tspan y="-599.456" x="346.617 349.6835 355.05439 359.15205 362.78343 366.36103 372.8796 376.97727 379.79273 384.3925 387.988 392.08567 399.11534 403.45506 408.31486 414.96794 417.52336 422.37416">-bestBeforeDay:int</tspan></text>
<text xml:space="preserve" transform="matrix(1 0 -0 1 0 792)" font-size="8.9664" font-family="F34"><tspan y="-581.459" x="346.617 353.78117 357.41255 361.5102 364.0656 366.62104 371.2208 376.33164 378.88706 382.9847 386.56233 390.13993 396.793 402.16389 407.0147 411.61448 414.1699 418.26756 422.8673">+sellable():boolean</tspan></text>
<path transform="matrix(1,0,0,-1,217.261,190.35303)" d="M-65.1738-257.35118H65.17381V-82.81055H-65.1738ZM65.17381-100.80759H-65.1738M65.17381-151.68177H-65.1738" fill="#fffcd5"/>
<path transform="matrix(1,0,0,-1,217.261,190.35303)" stroke-width=".3985" stroke-linecap="butt" stroke-miterlimit="10" stroke-linejoin="miter" fill="none" stroke="#000000" d="M-65.1738-257.35118H65.17381V-82.81055H-65.1738ZM65.17381-100.80759H-65.1738M65.17381-151.68177H-65.1738"/>
<text xml:space="preserve" transform="matrix(1 0 -0 1 0 792)" font-size="8.9664" font-family="F50"><tspan y="-507.648" x="194.636 202.2933 208.18424 212.36258 216.48712 221.78627 230.61818 235.47797">Customer</tspan></text>
<text xml:space="preserve" transform="matrix(1 0 -0 1 0 792)" font-size="8.9664" font-family="F34"><tspan y="-489.651" x="161.385 164.4515 169.56237 174.16213 181.83736 185.935 192.58806 197.69892 201.2765 204.87203 207.42745 212.5383">-name:String</tspan><tspan y="-478.69203" x="161.385 164.4515 169.05127 174.16213 179.27298 182.8685 186.96614 190.59754 194.22893 200.88199 205.99285 209.57044 213.16596 215.72138 220.83223">-address:String</tspan><tspan y="-467.73304" x="161.385 164.4515 168.0291 173.13996 176.73548 181.84633 189.01049 193.61922 197.71686 201.31238 207.95648 210.5119 215.3717">-turnOver:int</tspan><tspan y="-456.77406" x="161.385 164.4515 169.05127 173.65103 176.20645 181.3173 186.42816 190.00576 194.60552 198.1831 203.29396 206.92536 213.57842 218.9493 223.80011 228.39987 230.95529 235.05294 239.6527">-goldStatus:boolean</tspan></text>
<text xml:space="preserve" transform="matrix(1 0 -0 1 0 792)" font-size="8.9664" font-family="F34"><tspan y="-438.777" x="161.385 168.54915 172.12674 176.7265 182.734 187.0827 191.94249 195.52008 198.0755 202.9353 206.5129 210.09049 216.73459 221.84545 226.4452 231.55606 236.67589 239.23131">+toPay(int):double</tspan><tspan y="-427.818" x="161.385 168.54915 173.14891 177.24655 180.82415 187.72827 192.32804 200.00327 204.1009 207.6785 211.25609 217.90915 223.02 226.5976 230.19312 232.74854 237.85939">+getName():String</tspan><tspan y="-416.86" x="161.385 168.54915 172.18054 176.27819 179.85578 186.7599 191.35967 199.0349 203.13254 206.71013 211.82099 215.39858 218.9941 221.54952 226.66037 231.26013 234.83773 241.49079 246.09055 250.6903 253.24573">+setName(String):void</tspan><tspan y="-405.901" x="161.385 168.54915 173.14891 177.24655 180.82415 187.46825 192.5791 197.69893 201.29445 205.39209 209.02349 212.65488 216.23247 219.81006 226.45417 231.56502 235.15158 238.7471 241.30252 246.41338">+getAddress():String</tspan><tspan y="-394.94203" x="161.385 168.54915 172.18054 176.27819 179.85578 186.49988 191.6197 196.73056 200.32608 204.42372 208.05512 211.68651 215.2641 220.37496 223.95255 227.54807 230.10349 235.21434 239.8141 243.3917 250.04476 254.64452 259.2443 261.7997">+setAddress(String):void</tspan><tspan y="-383.98304" x="161.385 168.54915 173.14891 177.24655 180.82415 186.70612 191.82595 195.41249 200.53232 207.69647 212.29624 216.39388 219.9894 223.56699 227.14458 233.79764 236.35306 241.20389">+getTurnOver():int</tspan><tspan y="-373.02406" x="161.385 168.54915 172.18054 176.27819 179.85578 185.7467 190.85756 194.45308 199.56394 206.72809 211.32785 215.42549 219.02101 222.5986 225.15402 230.01383 233.59142 237.169 243.81311 248.42185 253.0216 255.57703">+setTurnOver(int):void</tspan><tspan y="-362.06507" x="161.385 168.54915 171.10457 174.73596 181.96288 186.56264 189.11806 194.22891 199.33977 202.91736 207.51712 211.09471 216.20557 219.83696 223.41455 226.99214 233.6452 239.01609 243.8669 248.46666">+isGoldStatus():bool</tspan><tspan y="-351.10609" x="161.385 168.54915 172.18054 176.27819 179.85578 187.08269 191.68245 194.23787 199.34873 204.45958 208.03717 212.63694 216.21453 221.32538 224.95677 228.53437 233.90525 238.76503 243.36479 245.92021 249.4978 256.1419 260.75065 265.3504 267.90583">+setGoldStatus(bool):void</tspan></text>
<text xml:space="preserve" transform="matrix(1 0 -0 1 0 792)" font-size="9.9626" font-family="F33"><tspan y="-89.365" x="303.134">1</tspan></text>
</svg>
